<?xml version="1.0" standalone="no"?>
<!DOCTYPE svg PUBLIC "-//W3C//DTD SVG 20010904//EN"
 "http://www.w3.org/TR/2001/REC-SVG-20010904/DTD/svg10.dtd">
<svg version="1.0" xmlns="http://www.w3.org/2000/svg"
 width="450.000000pt" height="450.000000pt" viewBox="0 0 450.000000 450.000000"
 preserveAspectRatio="xMidYMid meet">
<metadata>
Created by potrace 1.10, written by Peter Selinger 2001-2011
</metadata>
<g transform="translate(0.000000,450.000000) scale(0.100000,-0.100000)"
fill="#ffffff" stroke="none">
<path d="M3300 3976 c-79 -17 -128 -44 -185 -99 l-50 -49 -86 11 c-48 6 -122
11 -166 11 -68 0 -88 -4 -139 -30 -56 -28 -172 -132 -129 -115 11 4 52 10 90
12 79 6 141 -13 314 -94 l96 -45 -25 -16 c-14 -10 -52 -40 -86 -68 -71 -61
-105 -80 -159 -90 l-40 -7 35 -13 c56 -20 142 -16 236 11 107 31 145 33 94 5
l-35 -20 40 6 c35 6 38 5 28 -8 -11 -12 -8 -14 17 -10 36 5 35 6 10 -53 -19
-43 -23 -47 -48 -41 -162 37 -317 25 -508 -39 -209 -70 -467 -256 -566 -409
-29 -45 -75 -89 -200 -189 -89 -71 -205 -166 -257 -210 -52 -44 -128 -102
-170 -129 -42 -27 -78 -51 -80 -54 -7 -7 74 23 98 36 30 15 26 6 -11 -30 -44
-42 -181 -134 -298 -200 -116 -65 -302 -188 -350 -230 -32 -28 -29 -27 33 10
37 22 70 40 73 40 3 0 -46 -44 -108 -97 -132 -114 -321 -295 -351 -337 -19
-27 -19 -30 -3 -41 15 -12 14 -17 -15 -64 -27 -43 -30 -53 -19 -66 10 -12 23
-15 53 -9 37 6 40 5 34 -16 -6 -24 23 -60 49 -60 10 0 -9 -23 -46 -58 -105
-96 -60 -120 114 -61 103 34 175 72 326 172 l105 69 -163 -159 c-170 -166
-195 -203 -133 -203 15 0 43 5 60 11 29 10 34 9 47 -10 8 -11 23 -21 33 -21
23 0 103 42 165 88 33 24 59 35 76 34 16 -2 41 9 69 30 88 66 81 63 81 40 0
-54 50 -39 125 37 32 33 68 62 80 65 15 4 53 53 115 148 116 177 127 190 61
66 -28 -54 -50 -98 -48 -98 2 0 46 68 98 150 62 99 100 150 111 150 20 0 16
-15 -19 -75 l-24 -40 39 40 c21 22 43 48 48 57 6 12 41 23 114 38 58 11 110
20 117 20 6 0 24 -21 39 -47 15 -27 70 -90 121 -141 51 -51 93 -98 93 -105 0
-8 3 -8 9 1 6 10 10 7 15 -12 4 -15 10 -24 15 -21 5 2 12 -10 15 -28 3 -17 20
-73 37 -122 58 -171 67 -275 24 -275 -8 0 -20 -9 -27 -20 -7 -11 -23 -20 -35
-20 -57 0 -87 -107 -55 -198 l16 -47 7 60 c9 77 38 105 108 105 37 0 50 -4 55
-18 3 -9 9 -24 14 -32 30 -52 42 -86 43 -118 0 -20 4 -46 8 -56 6 -15 11 -10
29 32 12 28 22 55 22 60 0 5 7 15 15 22 8 7 15 28 15 46 0 37 2 39 31 24 14
-8 19 -21 19 -55 0 -24 5 -56 11 -72 l11 -28 13 25 c7 14 21 53 30 88 10 34
21 62 24 62 4 0 16 -26 26 -58 l18 -57 13 30 c20 45 17 115 -6 153 -27 45 -62
57 -115 39 -41 -14 -41 -14 -78 19 -23 21 -37 43 -37 58 0 13 -18 50 -40 82
-22 33 -40 68 -40 79 0 11 -9 39 -19 62 -17 37 -28 78 -45 182 -5 28 -4 32 9
21 12 -10 13 -6 8 27 -6 34 -5 37 10 25 14 -12 15 -10 11 20 -5 30 -2 36 38
65 l45 32 16 -34 c17 -37 92 -102 112 -97 7 1 15 -4 18 -13 4 -8 12 -12 19
-10 8 3 37 -31 77 -92 36 -54 73 -110 83 -125 9 -15 20 -45 24 -66 6 -38 4
-41 -26 -57 -18 -10 -38 -31 -46 -51 -14 -32 -13 -41 6 -98 24 -69 27 -75 53
-95 18 -14 18 -13 12 32 -7 43 -5 50 26 84 18 21 45 43 61 50 24 11 29 9 43
-10 8 -12 15 -26 15 -32 0 -7 11 -22 25 -35 14 -13 25 -33 25 -44 0 -12 10
-37 21 -56 17 -27 20 -45 17 -88 -5 -54 -5 -54 13 -31 23 30 59 122 59 152 0
12 -6 34 -14 49 -12 23 -12 26 1 21 8 -3 19 -17 24 -30 5 -13 22 -32 39 -41
39 -22 47 -54 26 -99 l-16 -34 31 18 c42 24 59 62 62 133 2 49 5 59 17 54 35
-16 76 -15 89 0 16 19 64 21 79 3 6 -6 12 -28 14 -47 l3 -35 18 32 c23 43 21
77 -6 109 -24 28 -41 32 -192 53 -33 5 -78 12 -100 15 -22 4 -54 9 -72 12 -18
3 -51 21 -75 41 -24 20 -58 42 -76 50 -53 22 -142 123 -191 214 -30 56 -39 80
-28 76 14 -5 13 -1 -3 26 -26 42 -27 65 -3 46 15 -12 16 -12 11 2 -9 23 93
119 127 119 3 0 3 -4 0 -10 -13 -21 33 -9 86 23 85 51 87 51 35 2 -46 -44 -48
-46 -20 -39 50 11 114 42 167 81 53 38 51 31 -12 -39 -35 -40 -16 -35 69 18
253 155 524 474 698 819 82 162 133 308 146 415 13 105 -41 237 -107 265 -48
20 -83 64 -101 127 -20 70 -20 77 0 52 70 -87 -163 356 -243 464 -30 40 -25
50 14 27 l28 -17 -30 27 c-16 14 -59 42 -95 61 -64 34 -65 35 -25 30 l40 -5
-30 13 c-26 12 -232 48 -260 45 -6 0 -35 -6 -65 -13z m130 -36 c10 -6 2 -7
-25 -3 -49 7 -58 13 -19 13 16 0 36 -5 44 -10z m-87 -17 c-13 -2 -35 -2 -50 0
-16 2 -5 4 22 4 28 0 40 -2 28 -4z m-110 -30 c-7 -2 -13 -11 -13 -19 0 -8 -6
-14 -14 -14 -8 0 -23 -3 -33 -6 -10 -4 -2 5 17 19 19 14 40 25 45 25 6 0 4 -2
-2 -5z m291 -42 c4 -5 -3 -7 -14 -4 -23 6 -26 13 -6 13 8 0 17 -4 20 -9z m-34
-11 c11 -7 1 -10 -35 -10 -36 0 -46 3 -35 10 8 5 24 10 35 10 11 0 27 -5 35
-10z m171 -27 c10 -12 5 -11 -18 6 -18 12 -33 24 -33 27 0 9 37 -15 51 -33z
m-650 -8 c90 -13 202 -47 224 -66 5 -5 -24 2 -65 16 -96 33 -115 31 -27 -2 37
-14 66 -27 65 -29 -2 -1 -42 8 -89 21 -181 51 -359 68 -426 40 -52 -22 -54 -9
-2 15 55 24 179 27 320 5z m665 -59 c28 -25 63 -62 79 -83 19 -25 -1 -10 -56
42 -46 44 -86 81 -88 82 -2 2 0 3 5 3 5 0 32 -20 60 -44z m-204 -23 c20 -4 26
-9 19 -16 -16 -16 -65 24 -68 54 -2 22 -1 21 8 -4 8 -19 20 -30 41 -34z m8 42
c10 -12 10 -15 -3 -15 -8 0 -17 7 -21 15 -3 8 -2 15 3 15 5 0 14 -7 21 -15z
m-386 -31 c26 -9 45 -18 43 -20 -2 -2 -28 5 -58 15 -30 11 -49 20 -43 20 6 1
32 -6 58 -15z m81 -34 c3 -6 -1 -7 -9 -4 -18 7 -21 14 -7 14 6 0 13 -4 16 -10z
m655 -183 c0 -12 -45 35 -101 108 -18 23 -3 11 35 -28 36 -37 66 -73 66 -80z
m-509 76 c13 -15 12 -15 -8 -4 -24 12 -29 21 -14 21 5 0 15 -7 22 -17z m57
-39 c-4 -3 -12 5 -18 18 -12 22 -12 22 6 6 10 -10 15 -20 12 -24z m406 -24
c57 -63 97 -119 63 -91 -24 19 -21 9 11 -46 29 -48 76 -163 67 -163 -2 0 -16
20 -31 45 -14 25 -27 45 -29 45 -2 0 7 -24 21 -53 26 -58 64 -197 64 -231 -1
-12 -16 20 -35 69 -38 99 -42 112 -19 75 l15 -25 -7 25 c-13 49 -53 130 -98
200 -25 39 -46 74 -46 77 0 4 21 -13 46 -37 55 -53 52 -46 -33 78 -34 50 -59
92 -54 92 5 0 34 -27 65 -60z m-144 -125 c-5 -14 -14 -25 -20 -25 -5 0 -10 -6
-10 -14 0 -8 -12 -28 -26 -43 -23 -26 -24 -26 -10 -3 8 14 20 45 27 69 12 41
14 43 20 20 5 -19 7 -14 9 21 1 38 3 41 10 22 6 -13 6 -32 0 -47z m-435 -175
c-6 -54 -24 -124 -30 -118 -2 2 0 22 5 46 4 23 6 42 5 42 -2 0 -15 -24 -29
-54 -15 -30 -34 -60 -43 -67 -12 -10 -10 -2 7 31 l22 45 -76 -75 c-78 -77
-101 -89 -44 -24 l33 37 -35 -18 c-19 -9 -61 -35 -94 -57 -101 -68 -51 -22 69
63 116 82 146 116 181 201 17 43 20 45 27 25 5 -12 6 -47 2 -77z m644 -47 c26
-52 61 -169 60 -202 0 -19 -7 -9 -25 38 -27 69 -65 201 -59 201 3 0 13 -17 24
-37z m171 -115 c21 -46 42 -101 45 -123 l5 -40 -14 40 -14 40 4 -60 c3 -33 7
-72 9 -87 2 -15 0 -30 -5 -33 -6 -4 -10 12 -11 37 0 24 -4 61 -9 83 -5 27 -6
8 -3 -60 3 -55 0 -118 -5 -140 -8 -34 -10 -22 -11 75 -1 101 -13 210 -37 318
-11 54 5 36 46 -50z m31 6 c12 -25 19 -47 17 -50 -2 -2 -14 19 -25 46 -12 28
-19 50 -17 50 3 0 14 -21 25 -46z m24 15 c9 -17 15 -33 13 -35 -3 -2 -12 12
-21 31 -21 43 -13 47 8 4z m-1780 -117 c-83 -82 -179 -151 -191 -139 -3 2 23
25 58 50 35 25 97 75 138 111 41 36 77 65 80 65 3 0 -36 -39 -85 -87z m1559 2
c19 -74 20 -203 1 -259 -12 -38 -13 -35 -8 50 3 51 -1 132 -9 188 -16 107 -8
116 16 21z m-439 -152 c-16 -70 -63 -197 -71 -189 -2 2 6 27 17 56 25 66 58
204 61 251 l1 35 4 -39 c3 -21 -3 -73 -12 -114z m373 -67 c-3 -65 -11 -115
-23 -143 -9 -24 -19 -42 -20 -40 -2 2 3 37 10 78 8 41 15 120 15 175 2 85 3
95 12 65 5 -19 8 -80 6 -135z m289 103 c-3 -7 -5 -2 -5 12 0 14 2 19 5 13 2
-7 2 -19 0 -25z m-1446 -28 c-13 -11 -33 -20 -45 -20 -17 1 -14 4 14 20 45 25
61 25 31 0z m119 -14 c-14 -13 -36 -27 -50 -31 -20 -6 -17 -1 15 23 48 37 69
42 35 8z m-390 10 c0 -2 -8 -10 -17 -17 -16 -13 -17 -12 -4 4 13 16 21 21 21
13z m500 -5 c0 -15 -30 -41 -46 -41 -10 0 -5 9 13 25 32 28 33 28 33 16z m490
-73 c-25 -83 -98 -228 -137 -273 l-26 -30 22 35 c36 57 117 230 137 292 10 32
20 56 22 53 2 -2 -6 -37 -18 -77z m-1040 36 c-37 -43 -312 -234 -418 -289 -41
-21 -56 -25 -65 -16 -9 9 10 32 79 99 49 48 112 102 139 121 l50 34 -60 -54
c-113 -101 -180 -168 -174 -173 8 -8 218 124 349 217 112 81 119 85 100 61z
m1400 -167 c-11 -54 -47 -143 -55 -136 -2 3 4 38 15 79 10 41 22 99 25 130 12
105 20 121 23 46 2 -38 -2 -92 -8 -119z m-1670 119 c0 -2 -53 -48 -117 -102
-65 -54 -152 -130 -193 -169 -41 -38 -86 -79 -99 -90 l-25 -20 21 30 c41 59
179 180 373 327 37 29 40 30 40 24z m299 -68 c-111 -79 -275 -204 -332 -251
-90 -77 -102 -78 -25 -3 74 72 218 183 318 245 78 48 102 54 39 9z m903 -81
c-23 -46 -60 -104 -82 -128 -40 -43 -40 -43 12 36 29 45 64 104 77 133 14 29
27 50 29 47 3 -3 -13 -42 -36 -88z m408 4 c-11 -67 -51 -165 -84 -206 -11 -13
-7 3 10 50 26 70 42 120 65 205 17 64 23 32 9 -49z m-1220 36 c0 -7 -165 -133
-225 -174 -73 -48 -85 -55 -85 -50 0 8 129 108 215 166 87 60 95 65 95 58z
m756 -64 c-22 -42 -79 -113 -91 -113 -3 0 11 21 31 47 19 25 45 63 57 84 31
53 33 41 3 -18z m-1101 -12 c-19 -17 -271 -207 -285 -215 -45 -24 119 117 193
166 82 53 115 71 92 49z m1500 -58 c-21 -73 -69 -164 -103 -195 -25 -23 -25
-23 5 32 16 30 47 94 68 142 22 48 41 86 43 83 2 -2 -4 -30 -13 -62z m-104
-106 c-12 -24 -31 -53 -43 -63 l-22 -19 21 35 c11 19 28 49 39 67 26 47 30 32
5 -20z m-1817 -75 c-31 -56 -62 -106 -69 -112 -25 -21 -25 7 0 56 25 49 115
167 122 160 2 -2 -22 -49 -53 -104z m1757 55 c-12 -19 -29 -41 -38 -48 -19
-15 -18 -13 33 66 25 39 29 21 5 -18z m-50 -5 c-12 -22 -41 -48 -41 -36 0 8
40 54 47 54 2 0 -1 -8 -6 -18z m-1810 -9 c-6 -10 -24 -34 -41 -53 -25 -28 -29
-30 -19 -10 10 23 58 80 66 80 2 0 -1 -8 -6 -17z m834 -59 c-60 -50 -356 -244
-425 -279 -94 -47 -179 -69 -222 -56 -21 6 -26 10 -13 10 94 4 264 85 510 241
94 59 172 108 175 109 3 0 -8 -11 -25 -25z m135 -7 c-221 -173 -378 -267 -449
-267 -28 0 -15 9 90 63 68 34 178 97 244 140 110 70 154 95 115 64z m-450 -2
c0 -12 -192 -131 -290 -180 -110 -55 -239 -105 -268 -104 -9 0 8 10 38 21 60
23 308 149 435 221 89 51 85 49 85 42z m513 -37 c-52 -45 -160 -116 -208 -137
-16 -7 -27 -10 -24 -6 15 14 265 184 272 185 5 0 -13 -19 -40 -42z m-1099 -25
c-46 -73 -59 -87 -41 -44 14 33 63 101 73 101 2 0 -12 -26 -32 -57z m1186 6
c-47 -43 -128 -95 -135 -87 -6 5 157 127 170 127 6 0 -10 -18 -35 -40z m-490
27 c0 -9 -154 -117 -236 -167 -106 -64 -200 -99 -266 -99 -64 0 -58 7 23 26
78 18 231 92 369 178 112 69 110 68 110 62z m-470 -78 c-36 -33 -91 -78 -122
-99 -101 -69 -156 -60 -87 13 l30 33 -16 -33 c-9 -19 -15 -36 -12 -38 6 -6
114 66 192 129 39 31 72 57 75 56 3 0 -24 -27 -60 -61z m-223 -40 c-14 -24
-40 -59 -57 -78 l-32 -35 22 35 c56 91 84 130 88 126 2 -3 -7 -24 -21 -48z
m1429 -99 c-6 -40 -45 -126 -46 -103 0 19 40 144 47 144 3 0 3 -18 -1 -41z
m-1651 21 c-19 -30 -602 -561 -728 -663 -81 -66 -93 -58 -22 14 73 74 739 657
753 659 2 0 0 -4 -3 -10z m2090 -42 c-45 -54 -166 -155 -220 -183 -41 -22 -45
-22 -23 -5 15 11 80 66 145 120 65 54 120 99 121 99 2 1 -8 -14 -23 -31z
m-504 -55 c-12 -44 -57 -143 -66 -143 -2 0 12 47 33 105 36 105 55 126 33 38z
m410 19 c-18 -33 -136 -123 -195 -147 -49 -21 -45 -13 12 24 27 17 80 56 118
86 38 30 70 54 72 55 1 0 -2 -8 -7 -18z m-476 -79 c-18 -61 -53 -135 -80 -168
-14 -18 -14 -17 1 20 62 153 73 183 80 210 6 21 9 24 12 13 2 -10 -4 -44 -13
-75z m355 25 c-41 -37 -157 -104 -166 -96 -3 4 197 138 206 137 3 0 -15 -18
-40 -41z m-411 -44 c-15 -52 -63 -141 -100 -184 -29 -33 -28 -30 10 40 23 41
53 101 68 132 30 66 37 70 22 12z m298 11 c-33 -29 -149 -82 -122 -56 11 11
147 90 155 90 3 0 -12 -15 -33 -34z m-393 -104 c-14 -28 -38 -60 -52 -73 l-26
-23 21 35 c53 92 78 129 81 120 2 -5 -9 -32 -24 -59z m-753 38 c-41 -16 -191
-39 -250 -38 -47 1 -33 5 84 24 77 13 151 23 165 23 l25 1 -24 -10z m695 -57
c-8 -15 -23 -35 -32 -43 -16 -13 -17 -12 -10 6 11 31 51 86 54 75 2 -5 -4 -22
-12 -38z m-1727 2 c-19 -21 -160 -148 -288 -258 l-24 -21 12 22 c20 39 296
282 320 283 3 0 -6 -12 -20 -26z m1160 22 c-12 -12 -154 -38 -229 -42 -109 -5
-94 1 55 25 119 19 182 25 174 17z m-734 -14 c-79 -68 -190 -166 -229 -202
-70 -65 -40 -17 36 57 66 65 176 152 193 153 6 0 6 -3 0 -8z m-220 -300 c-50
-48 -133 -119 -185 -159 -95 -72 -255 -173 -273 -173 -5 0 64 56 154 124 90
69 214 165 274 214 61 49 112 87 115 85 3 -3 -36 -44 -85 -91z m1213 43 c-3
-3 -9 2 -12 12 -6 14 -5 15 5 6 7 -7 10 -15 7 -18z m42 -30 c0 -5 -5 -3 -10 5
-5 8 -10 20 -10 25 0 6 5 3 10 -5 5 -8 10 -19 10 -25z m-991 8 c-156 -203
-392 -424 -492 -462 -25 -10 -27 -9 -18 7 13 24 505 471 520 472 2 0 -3 -8
-10 -17z m-550 -86 c-47 -45 -105 -93 -130 -106 -24 -13 -39 -19 -34 -13 19
20 240 202 245 202 3 -1 -34 -38 -81 -83z m1558 56 c-4 -3 -7 0 -7 7 0 7 3 10
7 7 3 -4 3 -10 0 -14z m40 -15 c-3 -7 -5 -2 -5 12 0 14 2 19 5 13 2 -7 2 -19
0 -25z m477 -84 c9 -24 2 -26 -12 -4 -7 11 -8 20 -3 20 5 0 12 -7 15 -16z m23
-51 c-4 -3 -10 -3 -14 0 -3 4 0 7 7 7 7 0 10 -3 7 -7z m-440 -40 c-4 -3 -7 0
-7 7 0 7 3 10 7 7 3 -4 3 -10 0 -14z m13 -38 c0 -8 -2 -15 -4 -15 -2 0 -6 7
-10 15 -3 8 -1 15 4 15 6 0 10 -7 10 -15z m530 -65 c17 -26 62 -70 70 -70 4 0
22 -12 41 -26 19 -15 25 -23 14 -19 -11 4 -27 8 -35 8 -25 1 -74 47 -101 97
-10 19 -26 46 -36 60 -15 24 -15 24 8 -2 13 -14 31 -36 39 -48z m-1895 -30
c-90 -90 -161 -148 -171 -138 -10 10 48 68 147 148 55 44 103 80 107 80 3 0
-34 -41 -83 -90z m1382 43 c-4 -3 -10 -3 -14 0 -3 4 0 7 7 7 7 0 10 -3 7 -7z
m21 -60 c1 -22 0 -24 -8 -13 -12 18 -13 40 -2 40 4 0 9 -12 10 -27z m27 -93
l6 -35 -15 25 c-8 14 -15 34 -16 45 0 31 19 4 25 -35z m583 0 c7 -11 8 -20 2
-20 -5 0 -14 9 -20 20 -6 11 -7 20 -3 20 5 0 14 -9 21 -20z m49 13 c-4 -3 -10
-3 -14 0 -3 4 0 7 7 7 7 0 10 -3 7 -7z m-207 -28 c0 -9 -6 -12 -16 -8 -13 5
-13 7 -2 14 17 11 18 11 18 -6z m177 -22 c-4 -3 -10 -3 -14 0 -3 4 0 7 7 7 7
0 10 -3 7 -7z m128 -13 c27 -30 12 -34 -15 -5 -13 14 -19 25 -13 25 5 0 18 -9
28 -20z m95 16 c0 -3 -4 -8 -10 -11 -5 -3 -10 -1 -10 4 0 6 5 11 10 11 6 0 10
-2 10 -4z m60 -10 c0 -3 -4 -8 -10 -11 -5 -3 -10 -1 -10 4 0 6 5 11 10 11 6 0
10 -2 10 -4z m32 -18 c-7 -7 -12 -8 -12 -2 0 14 12 26 19 19 2 -3 -1 -11 -7
-17z m-892 -13 c0 -8 5 -15 10 -15 6 0 10 -9 10 -20 0 -28 -19 -25 -30 6 -13
32 -13 44 0 44 6 0 10 -7 10 -15z m615 -25 c3 -5 4 -10 1 -10 -3 0 -8 5 -11
10 -3 6 -4 10 -1 10 3 0 8 -4 11 -10z m-655 -20 c0 -5 -5 -10 -11 -10 -5 0 -7
5 -4 10 3 6 8 10 11 10 2 0 4 -4 4 -10z m840 6 c0 -2 3 -11 6 -19 4 -12 0 -14
-15 -10 -27 7 -36 33 -11 33 11 0 20 -2 20 -4z m-860 -35 c0 -5 -7 -12 -16
-15 -14 -5 -15 -4 -4 9 14 17 20 19 20 6z m725 -21 c3 -5 2 -10 -4 -10 -5 0
-13 5 -16 10 -3 6 -2 10 4 10 5 0 13 -4 16 -10z m-555 -30 c0 -5 -5 -10 -11
-10 -5 0 -7 5 -4 10 3 6 8 10 11 10 2 0 4 -4 4 -10z m135 0 c-3 -5 -11 -10
-16 -10 -6 0 -7 5 -4 10 3 6 11 10 16 10 6 0 7 -4 4 -10z m-218 -17 c-4 -3
-10 -3 -14 0 -3 4 0 7 7 7 7 0 10 -3 7 -7z m153 -7 c0 -2 -9 -6 -20 -9 -11 -3
-20 -1 -20 4 0 5 9 9 20 9 11 0 20 -2 20 -4z m-113 -43 c3 -7 -3 -9 -16 -6
-12 3 -21 10 -21 15 0 13 32 6 37 -9z"/>
<path d="M3805 3477 c10 -15 20 -25 23 -22 3 3 -5 16 -17 28 l-23 22 17 -28z"/>
<path d="M4030 3000 c0 -7 3 -10 7 -7 3 4 3 10 0 14 -4 3 -7 0 -7 -7z"/>
</g>
</svg>
